<svg xmlns="http://www.w3.org/2000/svg" width="150" height="40" fill="none"><path fill="#37BFA7" d="m29.392 11.559-2.223-1.287c.22 1.034.389 2.056.492 3.036.088.846.22 2.693.22 2.781v12.485c0 .267-.318.82-.549.953L16.55 35.77c-.066.039-.275.1-.548.1-.274 0-.482-.061-.549-.1L4.668 29.527c-.231-.134-.549-.686-.549-.954V16.09c0-.267.32-.82.55-.953l5.988-3.467c.698-.965 1.497-1.992 2.355-3.094a152.326 152.326 0 0 0 2.974-3.911c-.95.002-1.87.234-2.595.653L2.608 11.56C1.098 12.434 0 14.34 0 16.09v12.483c0 1.75 1.097 3.656 2.608 4.531l10.783 6.243c.728.422 1.655.653 2.61.653.953 0 1.88-.231 2.608-.654l10.783-6.242c1.512-.875 2.608-2.78 2.608-4.53V16.09c0-1.75-1.096-3.655-2.608-4.531Z"/><path fill="#37BFA7" d="M13.274 32.946c3.135-4.65 4.839-11.693 5.652-16.11-2.06 3.85-5.68 9.79-10.092 13.548-.024-.039-.038-.024 4.44 2.562Z"/><path fill="#37BFA7" d="M20.432.257c-4.59 7.88-10.756 13.32-11.145 16.924-.363 3.368.836 6.148 2.802 7.878a50.646 50.646 0 0 0 2.224-3.05c-.036-.697-.296-6.135.271-7.665.324 2.361.995 4.54 1.244 5.302.082-.136.165-.27.243-.402a71.406 71.406 0 0 0 1.446-2.526c-.051-1.384-.193-6.255.283-7.372.126 1.61.716 3.658 1.07 4.774.47-.953.728-1.532.733-1.545l1.666-3.76-.438 4.09c-.002.021-.148 1.37-.504 3.424.976-.806 2.525-2.16 3.278-3.226.065 1.285-2.734 4.723-3.81 5.997a73.363 73.363 0 0 1-.66 2.828c.932-.526 3.071-1.788 4.265-2.935-.181 1.309-3.975 4.636-4.979 5.496a50.606 50.606 0 0 1-.822 2.487c2.304-.133 4.724-1.312 6.75-3.835C30.405 15.6 21.952-2.353 20.432.257Z"/><path fill="#333" d="M50.416 14.364c1.457 0 3.26.25 4.993.73v2.945h-1.202c-.67-1.37-1.572-2.078-3.977-2.078-2.774 0-5.247 1.918-5.247 6.987s2.52 6.804 5.57 6.804c2.451 0 2.983-.708 3.654-2.078h1.202v2.945c-1.734.48-3.537.73-4.993.73-4.438 0-7.605-2.466-7.605-8.516 0-6.026 3.167-8.47 7.605-8.47ZM63.661 18.474c3.144 0 6.126 1.666 6.126 6.438s-2.982 6.438-6.126 6.438-6.126-1.62-6.126-6.438c0-4.794 2.983-6.438 6.126-6.438Zm0 11.415c2.913 0 4.091-2.01 4.091-4.977 0-2.968-1.178-4.977-4.09-4.977-2.89 0-4.046 2.01-4.046 4.977 0 2.968 1.156 4.977 4.045 4.977ZM73.301 20.597c0-.525-.277-.548-.624-.548h-1.018v-1.256h3.653v1.393c1.387-.937 3.098-1.69 4.739-1.69 1.895 0 3.56.982 3.56 3.585v7.192c0 .525.277.548.624.548h1.017v1.256h-5.247V29.82h1.618v-7.192c0-1.735-.855-2.443-2.497-2.443-1.156 0-2.75.662-3.837 1.347v8.288h1.641v1.256h-5.247V29.82h.994c.346 0 .624-.023.624-.548v-8.676ZM89.921 27.88c0 1.369.786 1.871 1.92 1.871.6 0 1.294-.137 2.01-.342v1.552a9.313 9.313 0 0 1-2.635.389c-1.757 0-3.26-.823-3.26-3.243v-7.83h-1.525V19.25c1.502-.48 2.057-1.759 2.358-3.402h1.133v2.945h4.138v1.484h-4.138v7.602ZM105.34 27.47h.763v2.67c-1.203.708-3.352 1.21-4.6 1.21-3.953 0-6.033-1.94-6.033-6.484 0-4.132 2.127-6.392 5.733-6.392 4.392 0 5.224 3.013 5.224 6.027v.937h-8.83c0 3.105 1.433 4.429 3.907 4.429 1.432-.001 3.281-.229 3.836-2.398Zm-.902-3.448c0-1.85-.416-4.064-3.305-4.064-2.497 0-3.56 1.735-3.56 4.064h6.865ZM109.963 20.597c0-.525-.277-.548-.624-.548h-1.017v-1.256h3.652v1.393c1.387-.937 3.098-1.69 4.739-1.69 1.895 0 3.56.982 3.56 3.585v7.192c0 .525.277.548.624.548h1.017v1.256h-5.247V29.82h1.618v-7.192c0-1.735-.855-2.443-2.497-2.443-1.155 0-2.751.662-3.836 1.347v8.288h1.64v1.256h-5.247V29.82h.994c.347 0 .624-.023.624-.548v-8.676ZM127.716 31.35c-1.433 0-2.959-.32-4.137-.753V27.97h1.04c.346 1.21 1.687 2.01 3.028 2.01 1.502 0 2.751-.502 2.751-2.238 0-1.712-1.826-2.168-3.421-2.602-1.641-.457-3.283-1.12-3.283-3.242 0-2.672 2.243-3.425 4.832-3.425 1.202 0 2.45.205 3.56.456v2.603h-.925c-.601-1.188-1.71-1.69-2.935-1.69-1.48 0-2.497.709-2.497 1.85 0 1.256 1.341 1.62 3.051 2.123 1.641.48 3.698 1.05 3.698 3.54 0 2.853-2.219 3.994-4.762 3.994ZM138.72 29.866c.346 0 .462 0 .578-.023v1.301c-.37.069-.763.115-1.156.115-1.272 0-2.451-.48-2.451-2.306v-8.357c0-.524-.277-.548-.624-.548h-1.017v-1.256h3.629v9.658c0 .914.231 1.416 1.041 1.416Zm-3.121-16.21h2.126v2.169h-2.126v-2.17ZM145.238 31.35c-1.433 0-2.959-.32-4.138-.753V27.97h1.04c.347 1.21 1.688 2.01 3.029 2.01 1.502 0 2.751-.502 2.751-2.238 0-1.712-1.826-2.168-3.421-2.602-1.641-.457-3.283-1.12-3.283-3.242 0-2.672 2.243-3.425 4.831-3.425 1.203 0 2.451.205 3.56.456v2.603h-.924c-.601-1.188-1.71-1.69-2.936-1.69-1.479 0-2.496.709-2.496 1.85 0 1.256 1.341 1.62 3.051 2.123 1.641.48 3.698 1.05 3.698 3.54 0 2.853-2.219 3.994-4.762 3.994Z"/></svg>