<svg xmlns="http://www.w3.org/2000/svg" width="52" height="64" fill="none"><path fill="#37BFA7" d="m47.762 18.494-3.612-2.06c.358 1.655.631 3.29.799 4.859.144 1.353.358 4.309.358 4.45v19.975c0 .427-.518 1.311-.892 1.526L26.893 57.23c-.109.061-.448.16-.891.16-.445 0-.784-.099-.892-.16L7.586 47.244c-.376-.215-.892-1.099-.892-1.526V25.744c0-.428.518-1.313.892-1.525l9.731-5.546c1.134-1.545 2.433-3.189 3.827-4.951 1.546-1.955 3.188-4.036 4.833-6.258-1.542.003-3.037.374-4.216 1.045L4.238 18.497C1.783 19.895 0 22.945 0 25.744v19.974c0 2.799 1.783 5.849 4.238 7.249l17.523 9.988c1.182.675 2.688 1.045 4.24 1.045 1.55 0 3.054-.37 4.238-1.046l17.523-9.987c2.456-1.4 4.238-4.45 4.238-7.248V25.744c0-2.8-1.782-5.848-4.238-7.25Z"/><path fill="#37BFA7" d="M21.571 52.713c5.094-7.438 7.862-18.709 9.184-25.776-3.348 6.16-9.229 15.666-16.4 21.678-.038-.063-.062-.039 7.216 4.098Z"/><path fill="#37BFA7" d="M33.202.411C25.745 13.02 15.723 21.722 15.091 27.49c-.59 5.388 1.36 9.837 4.554 12.604a81.086 81.086 0 0 0 3.614-4.88c-.058-1.114-.482-9.815.44-12.264.527 3.778 1.616 7.265 2.02 8.483a113.948 113.948 0 0 0 2.746-4.685c-.083-2.213-.313-10.008.46-11.794.205 2.575 1.163 5.852 1.738 7.637.764-1.523 1.183-2.45 1.193-2.472l2.705-6.016-.71 6.545c-.004.034-.242 2.193-.82 5.478 1.586-1.289 4.104-3.457 5.328-5.16.105 2.054-4.444 7.556-6.193 9.594-.183.849-.382 1.73-.6 2.635-.154.64-.312 1.27-.473 1.89 1.517-.842 4.992-2.86 6.932-4.697-.294 2.095-6.46 7.419-8.09 8.794a80.161 80.161 0 0 1-1.336 3.98c3.744-.213 7.676-2.1 10.968-6.136C49.407 24.96 35.672-3.765 33.202.411Z"/></svg>